<svg width="48" height="48" viewBox="0 0 79 86" xmlns="http://www.w3.org/2000/svg">
    <g>
        <path
                d="m58.43,34.332c-3.999,0 -7.706,1.239 -10.772,3.343l-0.2,-0.369c6.467,-3.057 10.972,-9.59 10.972,-17.219c0,-10.542 -8.545,-19.087 -19.087,-19.087c-10.542,0 -19.087,8.545 -19.087,19.087c0,7.501 4.367,13.926 10.665,17.05l-0.241,0.415c-3.031,-2.028 -6.671,-3.22 -10.593,-3.22c-10.542,0 -19.087,8.545 -19.087,19.087s8.545,19.087 19.087,19.087c10.542,0 19.087,-8.545 19.087,-19.087l-0.067,-0.686l0.036,0.005l0.282,-0.031l-0.072,0.712c0,10.542 8.545,19.087 19.087,19.087c10.542,0 19.087,-8.545 19.087,-19.087c-0.005,-10.542 -8.555,-19.087 -19.097,-19.087zm-33.618,50.304l28.641,0l-14.321,-20.065l-14.32,20.065z"
                fill="#1c1c1c"
        />
    </g>
</svg>